<svg xmlns="http://www.w3.org/2000/svg" xmlns:xlink="http://www.w3.org/1999/xlink" width="1366" zoomAndPan="magnify" viewBox="0 0 1024.5 576" height="768" preserveAspectRatio="xMidYMid meet" version="1.0"><defs><g/><clipPath id="1b56586e65"><path d="M 132 178 L 260 178 L 260 344.933594 L 132 344.933594 Z M 132 178 " clip-rule="nonzero"/></clipPath><clipPath id="2129ebbf4b"><path d="M 106 174.769531 L 340 174.769531 L 340 308 L 106 308 Z M 106 174.769531 " clip-rule="nonzero"/></clipPath><clipPath id="24f3dd6462"><rect x="0" width="671" y="0" height="179"/></clipPath></defs><g clip-path="url(#1b56586e65)"><path fill="#2b4c7e" d="M 169.953125 283.039062 L 169.601562 193.335938 L 132.863281 207.613281 L 133.164062 282.988281 C 133.164062 284.234375 133.210938 285.535156 133.261719 286.730469 C 142.246094 290.226562 153.527344 288.679688 162.164062 286.480469 C 164.761719 285.78125 167.40625 284.984375 170 284.085938 C 169.953125 283.785156 169.953125 283.4375 169.953125 283.039062 Z M 222.8125 285.285156 C 222.464844 293.121094 220.21875 299.261719 216.074219 303.703125 C 211.53125 308.59375 204.941406 311.089844 196.308594 311.089844 C 190.816406 311.089844 186.175781 310.140625 182.382812 308.195312 C 177.039062 310.191406 171.597656 311.738281 166.058594 312.886719 C 157.421875 314.535156 148.039062 314.933594 139.152344 312.839844 C 139.851562 314.386719 140.652344 315.832031 141.5 317.28125 C 146.988281 326.664062 154.425781 333.652344 163.863281 338.246094 C 173.296875 342.886719 183.929688 345.132812 195.859375 345.085938 C 207.738281 345.035156 218.519531 342.636719 228.203125 337.847656 C 237.886719 333.054688 245.527344 326.015625 251.214844 316.679688 C 256.90625 307.347656 259.703125 295.917969 259.652344 282.4375 L 259.503906 253.886719 C 253.511719 259.128906 247.523438 264.367188 241.582031 269.609375 C 235.542969 275.152344 229.304688 280.441406 222.8125 285.285156 Z M 222.464844 192.488281 L 222.761719 257.03125 C 225.859375 255.085938 228.953125 253.085938 232.046875 251.140625 C 241.132812 245.199219 250.269531 239.410156 259.453125 233.769531 L 259.253906 178.210938 Z M 222.464844 192.488281 " fill-opacity="1" fill-rule="nonzero"/></g><g clip-path="url(#2129ebbf4b)"><path fill="#ff6b35" d="M 335.375 193.335938 C 332.832031 188.046875 325.640625 187.199219 320.75 190.792969 C 325.640625 187.199219 327.539062 180.058594 324.992188 174.769531 C 327.539062 180.058594 334.726562 180.859375 339.617188 177.3125 C 334.726562 180.859375 332.832031 188.046875 335.375 193.335938 Z M 132.8125 228.078125 C 116.441406 231.125 103.960938 250.792969 107.207031 271.507812 C 108.453125 280.441406 112.746094 288.679688 118.386719 294.367188 C 131.664062 307.746094 150.035156 308.894531 166.007812 305.898438 C 193.863281 300.207031 219.21875 283.039062 241.53125 262.621094 C 258.605469 247.648438 275.925781 232.820312 292.496094 216.847656 C 298.9375 210.609375 306.074219 203.667969 312.214844 197.082031 C 302.03125 202.023438 291.050781 208.164062 281.117188 213.851562 C 264.492188 223.4375 248.171875 233.570312 232 244.152344 C 209.734375 258.328125 186.472656 272.953125 162.113281 279.492188 C 148.335938 282.988281 127.722656 284.933594 120.582031 266.964844 C 115.394531 252.4375 122.929688 236.863281 132.8125 228.078125 Z M 132.8125 228.078125 " fill-opacity="1" fill-rule="nonzero"/></g><g transform="matrix(1, 0, 0, 1, 260, 185)"><g clip-path="url(#24f3dd6462)"><g fill="#2b4c7e" fill-opacity="1"><g transform="translate(0.934107, 138.29188)"><g><path d="M 78.875 0 L 78.875 -12.765625 L 78.5 -12.765625 C 75.320312 -7.429688 71.160156 -3.523438 66.015625 -1.046875 C 60.867188 1.429688 55.25 2.671875 49.15625 2.671875 C 40.382812 2.671875 32.789062 0.382812 26.375 -4.1875 C 19.96875 -8.757812 15.050781 -15.140625 11.625 -23.328125 C 8.195312 -31.523438 6.484375 -41.019531 6.484375 -51.8125 C 6.484375 -62.363281 8.257812 -71.570312 11.8125 -79.4375 C 15.363281 -87.3125 20.347656 -93.375 26.765625 -97.625 C 33.179688 -101.882812 40.453125 -104.015625 48.578125 -104.015625 C 55.054688 -104.015625 60.769531 -102.648438 65.71875 -99.921875 C 70.675781 -97.191406 74.742188 -93.285156 77.921875 -88.203125 L 78.296875 -88.203125 L 78.296875 -136.796875 L 104.96875 -136.796875 L 104.96875 0 Z M 79.4375 -48.390625 C 79.4375 -58.804688 77.5 -66.835938 73.625 -72.484375 C 69.757812 -78.140625 64.015625 -80.96875 56.390625 -80.96875 C 49.273438 -80.96875 43.75 -78.269531 39.8125 -72.875 C 35.875 -67.476562 33.90625 -59.890625 33.90625 -50.109375 C 33.90625 -41.085938 35.875 -33.6875 39.8125 -27.90625 C 43.75 -22.125 49.085938 -19.234375 55.828125 -19.234375 C 63.066406 -19.234375 68.8125 -21.867188 73.0625 -27.140625 C 77.3125 -32.421875 79.4375 -39.503906 79.4375 -48.390625 Z M 79.4375 -48.390625 "/></g></g></g><g fill="#2b4c7e" fill-opacity="1"><g transform="translate(105.524687, 138.29188)"><g><path d="M 100.40625 -4 L 100.40625 0 L 71.640625 0 C 70.109375 -4.445312 69.28125 -8.445312 69.15625 -12 C 64.332031 -6.789062 59.316406 -3.039062 54.109375 -0.75 C 48.898438 1.53125 42.992188 2.671875 36.390625 2.671875 C 27.117188 2.671875 19.65625 0.00390625 14 -5.328125 C 8.351562 -10.671875 5.53125 -17.847656 5.53125 -26.859375 C 5.53125 -35.367188 7.847656 -42.445312 12.484375 -48.09375 C 17.117188 -53.75 25.40625 -57.59375 37.34375 -59.625 L 56.390625 -62.484375 C 61.210938 -63.242188 64.414062 -64.195312 66 -65.34375 C 67.59375 -66.488281 68.390625 -68.394531 68.390625 -71.0625 C 68.390625 -74.875 67.023438 -77.765625 64.296875 -79.734375 C 61.566406 -81.703125 57.09375 -82.6875 50.875 -82.6875 C 40.832031 -82.6875 35.367188 -77.984375 34.484375 -68.578125 L 8.765625 -68.578125 C 9.773438 -80.140625 13.675781 -88.9375 20.46875 -94.96875 C 27.269531 -101 38.226562 -104.015625 53.34375 -104.015625 C 66.300781 -104.015625 76.398438 -101.472656 83.640625 -96.390625 C 90.878906 -91.316406 94.5 -84.332031 94.5 -75.4375 L 94.5 -18.859375 C 94.5 -14.160156 94.972656 -10.695312 95.921875 -8.46875 C 96.878906 -6.25 98.375 -4.757812 100.40625 -4 Z M 68.390625 -36.765625 L 68.390625 -49.34375 C 66.109375 -47.945312 63.632812 -46.832031 60.96875 -46 C 58.300781 -45.175781 54.425781 -44.382812 49.34375 -43.625 C 43.625 -42.863281 39.335938 -41.304688 36.484375 -38.953125 C 33.628906 -36.609375 32.203125 -33.148438 32.203125 -28.578125 C 32.203125 -24.890625 33.34375 -21.9375 35.625 -19.71875 C 37.914062 -17.5 40.898438 -16.390625 44.578125 -16.390625 C 48.515625 -16.390625 52.320312 -17.242188 56 -18.953125 C 59.6875 -20.671875 62.671875 -23.082031 64.953125 -26.1875 C 67.242188 -29.300781 68.390625 -32.828125 68.390625 -36.765625 Z M 68.390625 -36.765625 "/></g></g></g><g fill="#2b4c7e" fill-opacity="1"><g transform="translate(199.637067, 138.29188)"><g><path d="M 64.96875 -77.34375 L 92.015625 -136.796875 L 124.40625 -136.796875 L 78.6875 -51.25 L 78.6875 0 L 50.109375 0 L 50.109375 -51.625 L 2.859375 -136.796875 L 36.578125 -136.796875 L 64.78125 -77.34375 Z M 64.96875 -77.34375 "/></g></g></g><g fill="#2b4c7e" fill-opacity="1"><g transform="translate(314.896367, 138.29188)"><g><path d="M 100.40625 -4 L 100.40625 0 L 71.640625 0 C 70.109375 -4.445312 69.28125 -8.445312 69.15625 -12 C 64.332031 -6.789062 59.316406 -3.039062 54.109375 -0.75 C 48.898438 1.53125 42.992188 2.671875 36.390625 2.671875 C 27.117188 2.671875 19.65625 0.00390625 14 -5.328125 C 8.351562 -10.671875 5.53125 -17.847656 5.53125 -26.859375 C 5.53125 -35.367188 7.847656 -42.445312 12.484375 -48.09375 C 17.117188 -53.75 25.40625 -57.59375 37.34375 -59.625 L 56.390625 -62.484375 C 61.210938 -63.242188 64.414062 -64.195312 66 -65.34375 C 67.59375 -66.488281 68.390625 -68.394531 68.390625 -71.0625 C 68.390625 -74.875 67.023438 -77.765625 64.296875 -79.734375 C 61.566406 -81.703125 57.09375 -82.6875 50.875 -82.6875 C 40.832031 -82.6875 35.367188 -77.984375 34.484375 -68.578125 L 8.765625 -68.578125 C 9.773438 -80.140625 13.675781 -88.9375 20.46875 -94.96875 C 27.269531 -101 38.226562 -104.015625 53.34375 -104.015625 C 66.300781 -104.015625 76.398438 -101.472656 83.640625 -96.390625 C 90.878906 -91.316406 94.5 -84.332031 94.5 -75.4375 L 94.5 -18.859375 C 94.5 -14.160156 94.972656 -10.695312 95.921875 -8.46875 C 96.878906 -6.25 98.375 -4.757812 100.40625 -4 Z M 68.390625 -36.765625 L 68.390625 -49.34375 C 66.109375 -47.945312 63.632812 -46.832031 60.96875 -46 C 58.300781 -45.175781 54.425781 -44.382812 49.34375 -43.625 C 43.625 -42.863281 39.335938 -41.304688 36.484375 -38.953125 C 33.628906 -36.609375 32.203125 -33.148438 32.203125 -28.578125 C 32.203125 -24.890625 33.34375 -21.9375 35.625 -19.71875 C 37.914062 -17.5 40.898438 -16.390625 44.578125 -16.390625 C 48.515625 -16.390625 52.320312 -17.242188 56 -18.953125 C 59.6875 -20.671875 62.671875 -23.082031 64.953125 -26.1875 C 67.242188 -29.300781 68.390625 -32.828125 68.390625 -36.765625 Z M 68.390625 -36.765625 "/></g></g></g><g fill="#2b4c7e" fill-opacity="1"><g transform="translate(409.008747, 138.29188)"><g><path d="M 104.015625 -70.875 L 104.015625 0 L 77.34375 0 L 77.34375 -64.203125 C 77.34375 -69.796875 75.847656 -74.082031 72.859375 -77.0625 C 69.878906 -80.050781 65.597656 -81.546875 60.015625 -81.546875 C 53.785156 -81.546875 48.734375 -79.507812 44.859375 -75.4375 C 40.992188 -71.375 39.0625 -65.851562 39.0625 -58.875 L 39.0625 0 L 12.390625 0 L 12.390625 -101.359375 L 37.90625 -101.359375 L 37.90625 -86.5 L 38.296875 -86.5 C 41.472656 -92.46875 45.660156 -96.878906 50.859375 -99.734375 C 56.066406 -102.585938 62.039062 -104.015625 68.78125 -104.015625 C 75.757812 -104.015625 81.914062 -102.585938 87.25 -99.734375 C 92.582031 -96.878906 96.707031 -92.941406 99.625 -87.921875 C 102.550781 -82.898438 104.015625 -77.21875 104.015625 -70.875 Z M 104.015625 -70.875 "/></g></g></g><g fill="#2b4c7e" fill-opacity="1"><g transform="translate(513.599349, 138.29188)"><g><path d="M 58.875 -101.359375 L 58.875 -82.296875 L 42.296875 -82.296875 L 42.296875 -25.71875 C 42.296875 -23.050781 43.023438 -21.269531 44.484375 -20.375 C 45.941406 -19.488281 48.832031 -19.046875 53.15625 -19.046875 C 54.164062 -19.046875 56.070312 -19.175781 58.875 -19.4375 L 58.875 0.765625 C 51.757812 1.015625 46.992188 1.140625 44.578125 1.140625 C 36.453125 1.140625 30.289062 0.285156 26.09375 -1.421875 C 21.90625 -3.140625 19.113281 -5.554688 17.71875 -8.671875 C 16.320312 -11.785156 15.625 -15.878906 15.625 -20.953125 L 15.625 -82.296875 L 1.90625 -82.296875 L 1.90625 -101.359375 L 15.625 -101.359375 L 15.625 -128.78125 L 42.296875 -128.78125 L 42.296875 -101.359375 Z M 58.875 -101.359375 "/></g></g></g><g fill="#2b4c7e" fill-opacity="1"><g transform="translate(565.227347, 138.29188)"><g><path d="M 56.578125 -19.8125 C 62.679688 -19.8125 67.632812 -21.875 71.4375 -26 C 75.25 -30.132812 77.15625 -35.566406 77.15625 -42.296875 L 77.15625 -101.359375 L 103.828125 -101.359375 L 103.828125 0 L 78.296875 0 L 78.296875 -14.28125 L 77.921875 -14.28125 C 71.316406 -2.976562 61.03125 2.671875 47.0625 2.671875 C 36.132812 2.671875 27.65625 -0.566406 21.625 -7.046875 C 15.59375 -13.523438 12.578125 -22.476562 12.578125 -33.90625 L 12.578125 -101.359375 L 39.25 -101.359375 L 39.25 -37.90625 C 39.25 -32.070312 40.707031 -27.597656 43.625 -24.484375 C 46.550781 -21.367188 50.867188 -19.8125 56.578125 -19.8125 Z M 56.578125 -19.8125 "/></g></g></g></g></g></svg>