<svg xmlns="http://www.w3.org/2000/svg" xmlns:xlink="http://www.w3.org/1999/xlink" width="500" zoomAndPan="magnify" viewBox="0 0 375 374.999991" height="500" preserveAspectRatio="xMidYMid meet" version="1.0"><defs><clipPath id="132f2a9126"><path d="M 79 88 L 234 88 L 234 290.660156 L 79 290.660156 Z M 79 88 " clip-rule="nonzero"/></clipPath><clipPath id="ee91aa41cb"><path d="M 48 84.410156 L 329.816406 84.410156 L 329.816406 245 L 48 245 Z M 48 84.410156 " clip-rule="nonzero"/></clipPath></defs><g clip-path="url(#132f2a9126)"><path fill="#2b4c7e" d="M 124.765625 215.433594 L 124.34375 106.882812 L 79.882812 124.160156 L 80.246094 215.375 C 80.246094 216.882812 80.308594 218.453125 80.367188 219.902344 C 91.242188 224.132812 104.894531 222.261719 115.34375 219.601562 C 118.484375 218.757812 121.6875 217.789062 124.828125 216.703125 C 124.765625 216.339844 124.765625 215.917969 124.765625 215.433594 Z M 188.738281 218.152344 C 188.316406 227.636719 185.597656 235.066406 180.582031 240.441406 C 175.085938 246.363281 167.113281 249.382812 156.660156 249.382812 C 150.015625 249.382812 144.398438 248.234375 139.808594 245.878906 C 133.34375 248.296875 126.761719 250.167969 120.054688 251.558594 C 109.605469 253.550781 98.25 254.035156 87.496094 251.496094 C 88.339844 253.371094 89.308594 255.121094 90.335938 256.871094 C 96.980469 268.230469 105.980469 276.6875 117.398438 282.242188 C 128.8125 287.863281 141.679688 290.578125 156.117188 290.519531 C 170.496094 290.460938 183.542969 287.558594 195.261719 281.761719 C 206.980469 275.960938 216.222656 267.445312 223.109375 256.148438 C 229.996094 244.851562 233.378906 231.019531 233.316406 214.710938 L 233.136719 180.15625 C 225.886719 186.5 218.640625 192.84375 211.449219 199.183594 C 204.140625 205.890625 196.589844 212.292969 188.738281 218.152344 Z M 188.316406 105.855469 L 188.675781 183.960938 C 192.421875 181.605469 196.167969 179.191406 199.914062 176.835938 C 210.90625 169.644531 221.960938 162.636719 233.074219 155.8125 L 232.835938 88.578125 Z M 188.316406 105.855469 " fill-opacity="1" fill-rule="nonzero"/></g><g clip-path="url(#ee91aa41cb)"><path fill="#ff6b35" d="M 324.953125 106.882812 C 321.875 100.480469 313.175781 99.453125 307.253906 103.800781 C 313.175781 99.453125 315.46875 90.816406 312.390625 84.410156 C 315.46875 90.816406 324.167969 91.78125 330.089844 87.492188 C 324.167969 91.78125 321.875 100.480469 324.953125 106.882812 Z M 79.824219 148.925781 C 60.011719 152.609375 44.910156 176.410156 48.835938 201.480469 C 50.347656 212.292969 55.539062 222.261719 62.367188 229.144531 C 78.433594 245.335938 100.664062 246.726562 119.996094 243.101562 C 153.703125 236.214844 184.386719 215.433594 211.390625 190.726562 C 232.050781 172.605469 253.011719 154.664062 273.066406 135.335938 C 280.859375 127.785156 289.496094 119.386719 296.925781 111.414062 C 284.601562 117.394531 271.3125 124.824219 259.292969 131.710938 C 239.175781 143.308594 219.425781 155.570312 199.851562 168.378906 C 172.910156 185.53125 144.761719 203.230469 115.28125 211.144531 C 98.609375 215.375 73.664062 217.730469 65.023438 195.984375 C 58.742188 178.40625 67.863281 159.558594 79.824219 148.925781 Z M 79.824219 148.925781 " fill-opacity="1" fill-rule="nonzero"/></g></svg>